<?xml version="1.0" standalone="no"?>
<!DOCTYPE svg PUBLIC "-//W3C//DTD SVG 20010904//EN"
 "http://www.w3.org/TR/2001/REC-SVG-20010904/DTD/svg10.dtd">
<svg version="1.0" xmlns="http://www.w3.org/2000/svg"
 width="300.000000pt" height="300.000000pt" viewBox="0 0 300.000000 300.000000"
 preserveAspectRatio="xMidYMid meet">

<g transform="translate(0.000000,300.000000) scale(0.100000,-0.100000)"
fill="#000000" stroke="none">
<path d="M2113 2702 c10 -10 17 -21 17 -24 0 -3 -51 -8 -112 -11 -129 -6 -197
-26 -298 -87 -128 -77 -263 -208 -241 -234 17 -20 -125 -175 -224 -241 -57
-39 -294 -141 -402 -173 -196 -60 -313 -138 -437 -294 -66 -82 -135 -109 -179
-70 -20 17 -20 16 -14 -17 l7 -33 -60 4 c-59 4 -59 4 -42 -15 23 -26 74 -47
114 -47 55 1 114 35 175 102 32 34 78 82 103 106 47 45 177 129 186 120 3 -3
-11 -34 -30 -69 -55 -103 -76 -187 -87 -349 -11 -164 -23 -239 -49 -290 -23
-44 -115 -132 -158 -149 -18 -8 -34 -22 -37 -35 -2 -11 -9 -48 -15 -81 -29
-152 -66 -236 -114 -259 -19 -9 -39 -16 -44 -16 -17 0 -72 -50 -87 -81 -25
-47 -19 -112 12 -150 26 -31 77 -59 107 -59 8 0 18 10 22 22 3 12 37 52 75 90
57 58 78 89 133 202 93 190 164 257 316 296 65 17 70 17 70 1 0 -9 -15 -41
-32 -71 -33 -53 -44 -61 -159 -115 -89 -41 -93 -158 -9 -229 18 -14 37 -26 45
-26 7 0 34 29 60 65 27 36 72 83 102 106 61 46 99 94 151 194 57 108 117 162
244 218 137 60 158 65 158 41 0 -11 -9 -33 -19 -51 -11 -17 -18 -33 -15 -35 2
-3 27 -1 56 3 86 12 98 11 98 -10 0 -25 -65 -81 -94 -81 -19 0 -22 -4 -18 -25
5 -29 5 -29 -41 -10 -20 8 -47 15 -61 15 -57 0 -136 -112 -136 -193 0 -21 7
-54 15 -73 12 -28 19 -35 32 -29 57 24 114 35 175 35 107 0 131 17 250 178 55
75 114 152 131 170 31 32 31 32 126 31 53 -1 107 -4 121 -8 32 -9 37 -34 11
-60 -11 -11 -16 -23 -11 -26 22 -14 8 -25 -31 -25 -51 0 -72 -11 -98 -54 -26
-41 -28 -123 -5 -172 9 -19 17 -34 18 -34 1 0 19 9 40 20 21 10 73 27 115 36
42 9 82 22 90 28 24 18 53 95 82 211 23 93 30 110 46 108 11 -1 25 9 34 26 12
20 32 34 68 46 32 10 60 28 75 48 18 22 28 29 36 21 7 -7 25 3 58 34 57 53 82
90 82 120 0 24 15 30 23 10 11 -31 77 85 77 135 0 29 5 37 30 47 21 9 30 19
30 35 0 18 7 24 37 30 53 10 88 30 113 66 42 58 45 117 11 214 -5 17 -17 62
-26 100 -8 39 -31 102 -50 141 -23 48 -35 86 -35 114 0 148 -98 320 -243 427
-63 46 -77 51 -77 29 0 -26 -18 -27 -55 -2 -62 42 -224 85 -324 86 -23 0 -23
-1 -8 -18z m108 -156 c105 -23 183 -70 230 -139 16 -24 8 -18 -32 20 -55 53
-136 96 -205 109 l-39 7 44 -34 c52 -41 102 -130 103 -186 l0 -39 62 4 c33 2
81 10 105 18 40 13 47 12 75 -5 44 -27 106 -61 111 -61 7 0 -12 55 -33 95 -11
22 -33 52 -49 66 -36 34 -115 90 -120 86 -2 -2 4 -20 12 -40 18 -43 18 -47 5
-47 -5 0 -10 7 -10 15 0 25 -38 92 -56 99 -9 4 -14 9 -11 12 11 11 131 -61
178 -107 51 -50 84 -105 98 -168 10 -44 6 -49 -18 -27 -9 7 -44 28 -78 46 -55
29 -66 31 -94 21 -18 -6 -56 -11 -85 -11 -29 0 -64 -4 -78 -10 -26 -9 -26 -9
-26 43 0 96 -84 201 -188 234 l-37 11 35 1 c19 0 65 -6 101 -13z m-198 -67
c53 -14 105 -63 115 -107 28 -118 35 -139 54 -159 l21 -23 -21 0 c-45 0 -72
23 -102 86 -32 69 -60 94 -103 94 -27 0 -28 -1 -20 -32 11 -45 8 -104 -8 -158
l-13 -45 -7 57 c-5 32 -15 70 -23 85 -30 57 -109 113 -163 113 -27 1 -27 1 10
21 39 21 109 27 166 14 36 -8 41 7 15 43 -15 21 -14 22 13 22 15 0 45 -5 66
-11z m-233 -414 c0 -74 -60 -192 -159 -310 -59 -71 -77 -124 -64 -186 9 -47 9
-49 -12 -49 -30 0 -70 -33 -85 -70 -7 -16 -18 -30 -24 -30 -29 0 -89 -23 -107
-41 -10 -10 -19 -15 -19 -10 0 16 49 49 83 55 23 4 45 20 71 52 21 25 49 49
62 54 20 8 23 14 18 35 -15 62 4 110 96 235 76 103 130 203 130 241 0 6 -15
-1 -32 -16 -18 -14 -67 -48 -108 -74 -41 -27 -91 -65 -109 -85 l-35 -36 45 -1
44 -2 -55 -7 c-30 -4 -56 -6 -58 -5 -12 9 137 137 196 169 71 39 102 70 105
106 2 32 17 10 17 -25z m271 -181 c11 -12 38 -27 60 -33 36 -11 40 -16 36 -37
-3 -15 1 -28 10 -33 12 -6 13 -12 4 -29 -23 -43 -72 -37 -134 18 -62 54 -71
127 -24 200 l22 35 3 -50 c2 -33 10 -57 23 -71z m-640 24 c-12 -19 -29 -69
-40 -112 -11 -43 -29 -88 -40 -100 -11 -11 -38 -52 -60 -91 -36 -61 -41 -65
-35 -35 18 106 68 228 114 280 l22 25 -20 -35 c-10 -19 -28 -51 -40 -70 -16
-29 -52 -130 -52 -149 0 -2 20 24 45 60 40 57 64 124 69 189 1 15 48 80 54 75
2 -1 -6 -18 -17 -37z m869 -126 c0 -22 9 -41 25 -58 28 -28 29 -33 13 -69 -12
-26 -28 -34 -28 -13 0 7 -14 27 -32 45 -35 36 -41 83 -14 112 9 10 16 24 16
32 0 12 2 11 10 -1 5 -8 10 -30 10 -48z m-1312 -39 c-16 -49 -39 -97 -53 -111
l-25 -25 0 29 c0 16 5 36 10 44 8 12 10 10 10 -9 0 -20 2 -21 15 -11 8 7 15
20 15 30 0 10 7 36 15 59 8 22 12 41 9 41 -21 0 -164 -114 -194 -155 -53 -71
-71 -131 -81 -275 -4 -69 -13 -140 -18 -159 -14 -46 -8 -49 22 -9 47 62 69
118 79 196 21 181 45 259 91 300 15 12 12 5 -7 -25 -37 -56 -55 -120 -66 -237
-12 -117 -43 -194 -109 -268 -44 -50 -73 -65 -47 -25 22 34 35 103 45 248 9
116 13 139 40 193 35 71 97 134 201 205 41 28 75 51 76 51 0 0 -13 -39 -28
-87z m622 62 c0 -3 -23 -33 -50 -67 -28 -34 -61 -78 -74 -98 -45 -66 -149
-235 -177 -286 l-28 -50 57 4 c45 3 70 -1 110 -18 57 -25 79 -44 62 -55 -5 -3
-10 1 -10 9 0 19 -99 56 -151 56 -22 0 -49 -5 -61 -11 -11 -6 -21 -9 -23 -7
-8 7 37 93 92 178 32 49 82 126 111 172 29 46 68 100 87 121 19 21 35 42 35
48 0 5 5 9 10 9 6 0 10 -2 10 -5z m1320 -77 c0 -76 -60 -141 -132 -142 -42 -1
-43 0 -40 29 2 16 8 32 13 36 6 3 7 18 4 32 -7 25 -6 26 28 20 51 -8 86 4 99
32 16 35 28 31 28 -7z m-210 -83 c0 -33 -27 -75 -49 -75 -5 0 -16 -3 -24 -6
-12 -4 -13 1 -4 35 8 30 16 41 30 41 10 0 21 9 24 20 9 32 23 23 23 -15z
m-494 -10 c22 -33 12 -60 -16 -45 -13 7 -20 21 -20 40 0 37 14 38 36 5z m238
-121 c13 -3 40 -1 60 4 41 12 44 7 15 -28 -18 -22 -20 -22 -15 -5 5 19 2 21
-30 17 -26 -3 -44 2 -65 17 -35 26 -37 26 -41 -1 -3 -15 -6 -8 -9 18 l-4 42
33 -29 c18 -16 43 -31 56 -35z m-261 9 c-26 -20 -38 -15 -39 16 l-1 28 28 -16
c26 -14 27 -17 12 -28z m147 -16 c0 -5 -4 -6 -9 -3 -13 8 -22 -50 -12 -77 8
-20 48 -62 79 -81 7 -4 35 0 63 9 50 17 64 34 72 86 3 17 27 51 27 38 0 -3 -7
-29 -15 -57 -17 -57 -42 -76 -112 -88 -37 -6 -41 -3 -86 45 -51 54 -53 63 -35
123 8 26 14 35 20 26 4 -7 8 -17 8 -21z m330 -12 c-14 -17 -40 -20 -40 -5 0 6
10 20 22 32 21 21 23 21 26 5 2 -10 -2 -24 -8 -32z m-10 -52 c0 -5 -5 -15 -10
-23 -8 -12 -10 -11 -10 8 0 12 5 22 10 22 6 0 10 -3 10 -7z m-1253 -98 c28 -8
84 -30 126 -49 41 -19 108 -44 148 -56 84 -25 109 -43 109 -77 0 -33 -12 -54
-90 -153 -37 -47 -95 -127 -129 -177 -34 -51 -64 -93 -67 -93 -3 0 -2 4 1 10
3 5 1 19 -5 30 -8 15 -6 24 9 39 29 29 47 69 65 141 28 111 66 161 123 160 10
-1 -2 -11 -27 -23 -49 -24 -56 -37 -99 -183 -12 -39 -30 -79 -41 -89 -20 -18
-27 -45 -12 -45 4 1 30 35 57 77 28 42 83 119 123 170 79 101 94 140 67 163
-10 8 -59 29 -109 46 -50 17 -127 47 -171 67 -44 20 -95 37 -112 37 -18 0 -33
5 -33 10 0 13 7 13 67 -5z m897 -24 c16 -11 31 -26 32 -34 1 -8 8 -26 15 -40
12 -23 16 -24 32 -12 18 13 17 15 -13 30 -18 9 -30 19 -27 22 3 2 15 -1 28 -7
12 -7 43 -10 71 -8 37 4 51 2 55 -9 6 -14 -26 -57 -35 -48 -3 3 3 14 13 25 16
17 16 20 2 20 -26 0 -70 -20 -94 -42 l-21 -20 -17 33 c-19 37 -64 89 -77 89
-4 0 -9 -12 -9 -27 -2 -25 -2 -26 -6 -5 -5 26 2 52 14 52 4 0 21 -9 37 -19z
m-720 -111 c83 -10 118 -26 137 -62 10 -20 8 -19 -13 4 -29 30 -83 48 -148 48
-25 0 -63 3 -85 7 -31 5 -35 8 -20 14 11 4 27 5 35 3 8 -3 50 -9 94 -14z m786
-60 c10 -6 2 -7 -25 -3 -49 7 -58 13 -19 13 16 0 36 -5 44 -10z m-360 -367
c-1 -26 -29 -43 -59 -37 -30 6 -31 8 -15 25 16 18 74 27 74 12z m-657 -10 c4
-3 -2 -12 -13 -20 -11 -8 -20 -20 -20 -28 0 -10 -11 -12 -42 -8 -24 3 -45 7
-47 9 -2 2 4 15 13 29 13 20 24 25 60 25 23 0 46 -3 49 -7z"/>
<path d="M1962 2448 l3 -33 -85 3 c-109 4 -126 -7 -60 -37 60 -27 104 -78 119
-137 6 -24 14 -44 18 -44 3 0 3 38 1 85 -5 70 -3 87 10 94 38 22 102 -26 134
-102 19 -43 50 -77 70 -77 4 0 -1 19 -12 43 -10 23 -21 62 -25 87 -10 66 -39
106 -88 124 -87 31 -88 31 -85 -6z"/>
<path d="M2262 1788 c-22 -22 -14 -72 16 -101 33 -32 38 -33 46 -10 4 10 -3
26 -20 44 -14 15 -27 39 -28 53 0 14 -1 26 -1 26 -1 0 -6 -5 -13 -12z"/>
<path d="M2674 1632 c-24 -19 -39 -52 -24 -52 15 0 50 38 50 55 0 19 0 18 -26
-3z"/>
<path d="M1952 771 c-11 -7 -10 -10 3 -15 19 -7 35 0 35 15 0 11 -20 12 -38 0z"/>
<path d="M1262 758 c-18 -18 -15 -24 16 -26 18 -1 31 5 40 18 11 18 10 20 -16
20 -15 0 -33 -5 -40 -12z"/>
</g>
</svg>
