<svg xmlns="http://www.w3.org/2000/svg" height="249.66" viewBox="0 0 194 249.66278" width="194"><g transform="matrix(1.25 0 0 -1.25 -697.64 560.39)"><g><path d="m712.39 383.32c0.62523 11.801-5.8573 21.626-11.964 26.843-2.3346 3.9385-4.7137 5.9464-6.3295 7.3112-1.7064 1.4391-1.9262 1.6247-2.0643 4.5251-0.0832 1.8222-0.93562 3.5286-2.3361 4.6826-1.3856 1.1406-3.1989 1.647-4.9722 1.3841-1.053-0.15297-2.5826-0.46187-4.4182-1.0737-0.52127 1.2312-1.1896 2.4296-2.0019 3.5776-4.2014 5.9404-11.998 10.174-20.854 11.327-10.57 1.3767-15.943 3.6534-17.762 4.5682-1.1688 0.58811-2.4742 0.9178-3.7856 0.95939l-0.27029 0.004-0.27029-0.004c-1.3128-0.0416-2.6182-0.37128-3.7856-0.95939-1.8193-0.91482-7.1924-3.1915-17.763-4.5682-8.8557-1.1524-16.651-5.3865-20.854-11.327-0.81235-1.148-1.4806-2.3465-2.0019-3.5776-1.8341 0.61187-3.3623 0.92077-4.4138 1.0737-1.7762 0.26138-3.5895-0.24208-4.9751-1.3826-1.399-1.1524-2.2514-2.8574-2.3376-4.6796-0.13811-2.9049-0.35791-3.0905-2.0643-4.5311-1.6158-1.3633-3.995-3.3712-6.3281-7.3097-6.1083-5.2172-12.591-15.043-11.964-26.843 0.36682-6.931 3.3801-16.584 14.622-26.056-2.4-1.4703-4.7702-3.2108-6.4053-5.1014-1.2148-1.4034-1.7198-3.2554-1.3841-5.0791 0.33415-1.8222 1.4628-3.3712 3.0994-4.2534 2.3866-1.2816 3.8063-2.1623 4.1776-2.44 1.2831-1.1257 2.5692-1.9618 3.836-2.5544-0.91334-4.2608-0.65047-9.772 3.1633-16.332 2.4816-4.2667 2.4712-7.3008 2.3509-8.4087-0.34603-3.2138 1.5029-6.331 4.4954-7.58 3.5969-1.5014 4.3618-3.1143 4.3944-3.1841l0.0951-0.20049c-0.0832-0.44851-0.11881-0.9074-0.10396-1.3693l0.0238-0.79157c0.17228-5.985 0.40841-14.183 12.64-20.454 5.7949-2.9732 8.1755-5.5558 8.7696-6.2805 0.62226-0.75592 1.4049-1.3336 2.2707-1.7094 1.4316-6.4558 6.2701-10.151 9.6918-12.763 2.3108-1.7643 4.3068-3.288 4.8355-4.9499 0.85839-2.6999 3.343-4.5132 6.187-4.5132 2.8425 0 5.3286 1.8148 6.1825 4.5132 0.5287 1.6618 2.5262 3.1856 4.837 4.9499 3.4202 2.6123 8.2602 6.3073 9.6918 12.765 0.86434 0.37574 1.6485 0.95345 2.2722 1.7123 0.59108 0.72028 2.9717 3.3044 8.7666 6.2761 12.233 6.2716 12.469 14.469 12.64 20.454l0.0238 0.7886c0.0149 0.46335-0.0208 0.92373-0.10396 1.3722l0.0965 0.20346c0.0312 0.0683 0.79602 1.6797 4.393 3.1811 2.9925 1.2475 4.8415 4.3647 4.4954 7.5815-0.12029 1.1064-0.13069 4.1405 2.3509 8.4087 3.8138 6.5597 4.0781 12.07 3.1633 16.33 1.2683 0.59256 2.5544 1.4287 3.8346 2.5544 0.37276 0.27772 1.794 1.1599 4.185 2.443 1.6321 0.87919 2.7593 2.4282 3.0935 4.2504 0.33563 1.8252-0.1693 3.6756-1.3812 5.0776-1.6366 1.8905-4.0068 3.6326-6.4083 5.1028 11.242 9.472 14.256 19.125 14.624 26.056" fill="#fff"/><path d="m96.883 8.2871v0.002c-0.624 0.0037-1.247 0.1459-1.822 0.4355-3.16 1.5894-10.646 4.6134-24.504 6.4184-15.308 1.991-25.91 12.124-23.733 22.351-5.454-3.72-10.347-4.79-12.33-5.08-0.488-0.072-0.892 0.315-0.914 0.807-0.555 11.675-6.147 8.258-12.08 19.172-12.774 10.013-26.79 38.573 11.502 62.517 0 0-11.892 4.83-16.34 9.98-0.173 0.2-0.123 0.5 0.109 0.62 1.33 0.72 5.352 2.91 6.512 3.94 5.302 4.69 9.399 2.64 11.203 1.22-0.115 0.19-0.237 0.39-0.375 0.62-2.498 4.16-7.497 11.66-0.554 23.6 4.054 6.98 4.14 12.41 3.871 14.9-0.095 0.88 0.416 1.73 1.24 2.07 6.314 2.64 8.532 6.02 9.268 7.64 0.146 0.32 0.621 0.31 0.746-0.03 2.322-6.25-0.686-14.03-0.686-14.03s11.972 9.53 0.902 18.07c-0.215 0.16-0.343 0.42-0.334 0.69 0.245 7.6-0.12 14.22 11.926 20.4 8.118 4.16 11.868 8.01 13.237 9.68 0.239 0.29 0.717 0.12 0.72-0.25 0.028-1.95-0.312-6.41-3.127-13.04 0 0 6.734 7.57 6.387 14.16-0.748 14.22 15.092 15.67 18.313 25.79 0.12 0.38 0.481 0.63 0.88 0.63 0.4 0 0.761-0.25 0.881-0.63 3.219-10.12 19.059-11.57 18.309-25.79-0.34-6.59 6.39-14.16 6.39-14.16-2.82 6.63-3.15 11.09-3.13 13.04 0.01 0.37 0.48 0.54 0.72 0.25 1.37-1.67 5.12-5.52 13.24-9.68 12.05-6.18 11.68-12.8 11.93-20.4 0-0.27-0.12-0.53-0.34-0.69-11.07-8.54 0.91-18.07 0.91-18.07s-3.01 7.78-0.69 14.03c0.12 0.34 0.6 0.35 0.75 0.03 0.73-1.62 2.95-5 9.26-7.64 0.83-0.34 1.34-1.19 1.24-2.07-0.26-2.49-0.18-7.92 3.87-14.9 6.95-11.94 1.95-19.44-0.55-23.6-0.14-0.23-0.26-0.43-0.38-0.62 1.81 1.42 5.9 3.47 11.21-1.22 1.16-1.03 5.18-3.22 6.51-3.94 0.23-0.12 0.28-0.42 0.11-0.62-4.45-5.15-16.34-9.98-16.34-9.98 38.29-23.944 24.27-52.504 11.5-62.517-5.93-10.914-11.53-7.497-12.08-19.172-0.02-0.492-0.43-0.879-0.91-0.807-1.99 0.29-6.88 1.36-12.33 5.08 2.18-10.227-8.43-20.36-23.73-22.351-13.86-1.805-21.35-4.829-24.51-6.4184-0.573-0.2896-1.198-0.4318-1.824-0.4355v-0.002h-0.016-0.017zm68.207 45.942c0.12-0.005 0.25 0.037 0.37 0.136 32.04 27.226-5.15 53.295-15.68 53.265 2.25-4.49 0.8-7.996-0.31-11.05-0.77-2.12 2.47-3.388 4.52-3.342 0.67 0.015 1.07-0.735 0.69-1.285-3.76-5.404-8.27-6.758-8.27-6.758s18.08-0.497 21.28-14.955c1.24-5.586-0.74-11.077-3.07-15.189-0.22-0.4 0.1-0.81 0.47-0.822zm-136.38 0.001c0.37 0.012 0.688 0.422 0.461 0.823-2.33 4.11-4.301 9.603-3.063 15.189 3.201 14.458 21.274 14.953 21.274 14.953s-4.508 1.352-8.26 6.756c-0.382 0.552 0.012 1.304 0.682 1.289 2.056-0.048 5.295 1.22 4.525 3.34-1.11 3.054-2.559 6.56-0.309 11.05-10.535 0.03-47.728-26.039-15.679-53.265 0.116-0.099 0.246-0.139 0.369-0.135zm20.603 64.65c0.116-0.01 0.236 0 0.354 0.04 2.276 0.64 8.372 3.27 7.685 12.75-0.026 0.36-0.441 0.54-0.738 0.33-2.497-1.78-11.667-2.88-8.088-12.51 0.128-0.34 0.441-0.57 0.787-0.61zm95.162 0c0.35 0.04 0.66 0.27 0.79 0.61 3.58 9.63-5.59 10.73-8.09 12.51-0.29 0.21-0.71 0.03-0.73-0.33-0.69-9.48 5.4-12.11 7.68-12.75 0.12-0.04 0.24-0.05 0.35-0.04z" transform="matrix(.8 0 0 -.8 558.11 448.31)" fill="#003a63"/><path d="m59.965 80.881c-0.37 0.041-0.702 0.34-0.715 0.777-0.076 2.789-0.597 8.444-3.311 13.365-3.777 6.847-0.708 13.447 4.249 16.517 3.462 2.15 5.311 6.59 6.111 9.08 0.213 0.66 1.121 0.74 1.463 0.14 4.346-7.7 4.985-13.41 5.006-15.98 0.005-0.57-0.588-0.98-1.108-0.74-3.533 1.66-6.302-6.568-6.517-13.03-0.162-4.825-2.843-8.224-4.536-9.901-0.186-0.185-0.42-0.253-0.642-0.228zm73.875 0c-0.23-0.025-0.46 0.043-0.65 0.228-1.69 1.677-4.37 5.076-4.53 9.901-0.22 6.462-2.99 14.69-6.52 13.03-0.52-0.24-1.11 0.17-1.1 0.74 0.02 2.57 0.66 8.28 5 15.98 0.34 0.6 1.25 0.52 1.46-0.14 0.8-2.49 2.65-6.93 6.12-9.08 4.95-3.07 8.02-9.67 4.24-16.517-2.71-4.921-3.23-10.576-3.31-13.365-0.01-0.437-0.34-0.736-0.71-0.777zm-50.776 37.919c-0.832 0.01-1.584 0.85-1.468 1.95l1.521 14.33c0.113 1.07-1.094 1.58-1.596 0.68-1.884-3.41-4.703-8.76-7.183-13.51-0.678-1.3-2.352-1.02-2.705 0.44-0.52 2.14-1.112 4.2-1.787 6.02-0.107 0.3-0.15 0.61-0.104 0.93 0.591 4.17 2.339 12.95 4.485 20.88 1.011 3.73 3.258 6.88 6.261 8.78l10.315 4.21c3.785 2.39 8.353 2.39 12.137 0l10.37-4.22c3.01-1.9 5.26-5.06 6.27-8.8 2.15-7.91 3.89-16.68 4.48-20.85 0.05-0.32 0-0.63-0.1-0.93-0.7-1.87-1.3-3.99-1.83-6.19-0.35-1.47-2.03-1.75-2.71-0.45-2.5 4.8-5.36 10.24-7.27 13.69-0.5 0.9-1.71 0.39-1.6-0.68l1.51-14.22c0.16-1.46-1.23-2.47-2.3-1.67-2.07 1.57-4.16 3.08-6.06 4.76-4.014 3.55-9.564 3.56-13.579 0.01-1.945-1.72-4.097-3.27-6.226-4.88-0.267-0.2-0.553-0.29-0.831-0.28zm-40.011 14.52c-0.199 0.02-0.382 0.24-0.33 0.5 0.909 4.46 4.907 5.58 7.072 8.25 1.309 1.62 0.62 4.09-0.035 5.64-0.158 0.38 0.218 0.7 0.498 0.43 3.462-3.32 6.463-9.75 7.15-12.49 0.076-0.3-0.173-0.54-0.429-0.42-5.154 2.55-7.594 1.3-9.094 0.85-1.66-0.5-3.627-1.92-4.635-2.7-0.062-0.04-0.131-0.06-0.197-0.06zm107.7 0c-0.07 0-0.14 0.02-0.2 0.06-1.01 0.78-2.97 2.2-4.63 2.7-1.5 0.45-3.94 1.7-9.1-0.85-0.25-0.12-0.5 0.12-0.43 0.42 0.69 2.74 3.69 9.17 7.15 12.49 0.29 0.27 0.66-0.05 0.5-0.43-0.65-1.55-1.34-4.02-0.03-5.64 2.16-2.67 6.16-3.79 7.07-8.25 0.05-0.26-0.13-0.48-0.33-0.5zm-33.31 36.28c-0.23-0.01-0.47 0.01-0.7 0.06l-17.105 3.16c-1.992 0.37-4.035 0.37-6.024-0.01l-16.56-3.15c-0.938-0.17-1.915 0.06-2.649 0.66-1.468 1.2-2.534 2.62-3.298 4.11-0.684 1.34-0.812 2.89-0.426 4.33 0.817 3.08 2.029 6.32 3.83 9l0.103 0.11 1.879 1.41c0.75 0.56 1.777-0.22 1.401-1.07-0.904-2.04-1.7-4.77-1.528-7.8l-2.734-2.62c-0.373-0.35-0.027-0.97 0.478-0.84 1.857 0.47 4.937 1.35 8.221 2.74 3.279 1.16 7.307 3.04 10.164 5.87 0.268 0.26 0.491 0.56 0.682 0.88 0.763 1.27 2.678 4.67 2.689 6.76 0.208-0.01 0.41-0.02 0.619-0.02 0.494 0 0.978 0.02 1.456 0.04-0.004-2.08 1.922-5.5 2.692-6.77 0.19-0.33 0.41-0.63 0.68-0.89 2.61-2.58 6.2-4.35 9.3-5.5 3.6-1.6 7.07-2.6 9.08-3.11 0.51-0.13 0.85 0.49 0.48 0.84l-2.74 2.63c0.2 3.03-0.58 5.76-1.49 7.8-0.38 0.86 0.66 1.64 1.41 1.07l1.84-1.39 0.1-0.11c1.8-2.68 3.02-5.92 3.83-9 0.39-1.45 0.26-2.99-0.42-4.33-0.77-1.51-1.85-2.94-3.33-4.15-0.54-0.45-1.23-0.69-1.93-0.71zm-20.635 28.84l-6.914 0.99c-0.19 0.02-0.338 0.16-0.373 0.33l-0.461 2.27c-0.166 0.83 0.602 1.56 1.515 1.45l6.289-0.78h0.121l6.248 0.77c0.92 0.12 1.7-0.63 1.51-1.47l-0.51-2.25c-0.04-0.17-0.19-0.3-0.37-0.32l-7.055-0.99z" transform="matrix(.8 0 0 -.8 558.11 448.31)" fill="#6b818d"/></g></g></svg>
